<?xml version="1.0" encoding="utf-8"?>
<!-- Generator: Adobe Illustrator 19.2.1, SVG Export Plug-In . SVG Version: 6.00 Build 0)  -->
<svg version="1.1" id="Laag_1" xmlns="http://www.w3.org/2000/svg" xmlns:xlink="http://www.w3.org/1999/xlink" x="0px" y="0px"
	 viewBox="0 0 1920 1000" style="enable-background:new 0 0 1920 1000;" xml:space="preserve">
<style type="text/css">
	.st0{fill:#86ADB6;}
	.st1{fill:#A2D5AE;}
	.st2{fill:#E6F0C3;}
	.st3{fill:#FFFFFF;}
</style>
<path class="st1" d="M1922,1008l-1923.5-3.5l3.2-770.3L358.1,171H477l71.2,51.6l61.8-14.4l68.6,38.5l119.1,6.5l78.3-47.5l98.9-34.7
	c25.1,10.5,50.1,20.9,75.2,31.4c9.4,3.9,18.8,7.9,28.2,11.8c24.5-1.7,49-3.5,73.4-5.2l93.8,44.2l179,19.8l74-51.3l423.5,3.2V1008z"
	/>
<path class="st3" d="M897.3,320.7l-130-1.7l200.8-56.7l113.5-31c3.8-1,5.4-5.5,3-8.6l-6.4-8.5l20.9,10.5c4.4,2.2,3.9,8.7-0.9,10.1
	l-82.8,29.7L897.3,320.7"/>
</svg>
