<?xml version="1.0" encoding="utf-8"?>
<!-- Generator: Adobe Illustrator 19.2.1, SVG Export Plug-In . SVG Version: 6.00 Build 0)  -->
<svg version="1.1" id="Laag_1" xmlns="http://www.w3.org/2000/svg" xmlns:xlink="http://www.w3.org/1999/xlink" x="0px" y="0px"
	 viewBox="0 0 1920 1000" style="enable-background:new 0 0 1920 1000;" xml:space="preserve">
<style type="text/css">
	.st0{fill:#86ADB6;}
	.st1{fill:#A2D5AE;}
	.st2{fill:#E6F0C3;}
	.st3{fill:#FFFFFF;}
</style>
<polygon class="st2" points="2,152 135,126 357,221 475,258 541,249 719,206.1 780.5,245.7 914,260 1052.4,266 1121.5,258 
	1180.1,206.1 1310.5,235 1399.7,298 1576,171 1695,130 1871,78 1922,78 1922,326 1922,1008 -1.5,1004.5 "/>
<path class="st3" d="M907.1,258.3l30.8,2.8l-20.4,7.2c-2.7,1.1-2.3,5,0.6,5.5l73.9,11.6c5.2,0.8,4.9,8.4-0.3,8.9l-109.4,9.7
	c-51.6,4.6-91.2,47.8-91.2,99.6v293.9c0,43.1,28.2,81.1,69.4,93.6L1576,1008H296l197.7-117.5c26-15.5,33.3-49.9,15.8-74.6l0,0
	c-21-29.7-31.5-65.6-29.7-102l15.6-311.6c2.6-51.4,43.3-92.7,94.7-95.9l248.1-15.6c2.5-0.2,3-3.5,0.6-4.4l-42.8-15.9
	c-2.8-1.1-2.3-5.2,0.7-5.5l68.2-6C879.1,257.7,893.1,257.5,907.1,258.3"/>
</svg>
