<svg id="Laag_1" data-name="Laag 1" xmlns="http://www.w3.org/2000/svg" viewBox="0 0 1920 1000"><defs><style>.cls-1{fill:#a2d5ae;}.cls-2{fill:#fff;}</style></defs><title>achtergrond bergen journey works</title><path class="cls-1" d="M1923,1008L-0.5,1004.5,2.66273,234.15043,359.11939,171H477.9976l71.20226,51.628L611,208.18643l68.5965,38.53287,119.10574,6.4649,78.343-47.46277L975.93451,171l75.186,31.40778,28.1958,11.77835q36.71686-2.593,73.43372-5.18613l93.75,44.1842L1425.51245,273,1499.5,221.68576l423.5,3.16478V1008Z"/><path class="cls-2" d="M964.4227,262.1735L279.43048,479.0915,502.9193,512.08985,1019.96075,264.5689l-55.53805-2.3954,118.21742-30.88731a5.48017,5.48017,0,0,0,3.0283-8.58422l-6.35213-8.51585,20.89365,10.50293a5.48017,5.48017,0,0,1-.87631,10.1423l-79.37286,29.73754"/></svg>