<svg id="Laag_1" data-name="Laag 1" xmlns="http://www.w3.org/2000/svg" viewBox="0 0 1920 1000"><defs><style>.cls-1{fill:#e6f0c3;}.cls-2{fill:#fff;}</style></defs><title>achtergrond bergen journey works</title><polygon class="cls-1" points="3 152 136 126 358 221 476 258.012 542 249 720 206.087 781.535 245.707 915.008 260.042 1053.414 266.012 1122.512 258.012 1181.1 206.087 1311.5 235 1400.745 297.972 1577 171 1696 130 1872 78 1923 78 1923 326 1923 1008 -0.5 1004.5 3 152"/><path class="cls-2" d="M981.83333,262.91667c0.383,0.029.377-.07354,0,0l-32.45782,6.36562c-2.69486,1.0665-10.70575,4.71782.60736,5.45638l91.48139,14.30654c14.2055,2.28823,6.1,4.18237-2.60425,4.53349l-10.696,2.35711c-45.1674,4.02063-238.6424,89.0272-254.09741,161.57634-19.06346,89.488-.84179,202.23126,40.93694,253.70882,63.0014,77.627,381.0332,239.64322,792.9996,297.77913h0L297.01406,1008l-0.01991.0005c-1.49114.12759-287.81311,24.59363-305.92744,0.09053a0.34359,0.34359,0,0,1-.06593-0.20613L-8.9992,481c2.58182-51.41182,548.809-171.44646,600.18359-174.685,0,0,217.28194-16.28209,243.82215-15.75259,46.99346,0.93757,12.32679-5.2294,3.292-7.90368L784.1394,270.043c-16.47314-4.37656-3.3385-6.68627.65218-7.00365l81.35082-8.15192"/></svg>